<svg xmlns="http://www.w3.org/2000/svg" xmlns:xlink="http://www.w3.org/1999/xlink" id="Capa_1" x="0px" y="0px" viewBox="0 0 512 512" style="enable-background:new 0 0 512 512;" xml:space="preserve">
                                                                    <style type="text/css">
                                                                        .st0 {
                                                                            fill: #FFFFFF;
                                                                        }
                                                                    </style>
                                                                    <g>
                                                                        <path class="st0" d="M226.2,174.1L99.4,154c-8.2-1.3-15.9,4.3-17.2,12.5c-18.7,118-18.5,115.1-18.5,122.3   c-0.5,33.8,20.7,64.2,52.2,75.6L99,470.9l-40.6-6.4c-8.2-1.3-15.9,4.3-17.2,12.5c-1.3,8.2,4.3,15.9,12.5,17.2   c107.4,17-126-20,111,17.6c8.2,1.3,15.9-4.3,17.2-12.5c1.3-8.2-4.3-15.9-12.5-17.2l-40.6-6.4l16.9-106.5   c36.4-1.2,69.4-27.9,75.6-66.8l17.6-111C240.1,183.1,234.5,175.4,226.2,174.1L226.2,174.1z M109.5,186.1l97.1,15.4l-6.1,38.5   L96.5,268.4L109.5,186.1z M135.2,338.5c-20.7-3.3-36.3-19.1-40.4-38.4l100.6-27.4l-4,25C187.2,324.4,162,342.7,135.2,338.5   L135.2,338.5z">
                                                                        </path>
                                                                        <path class="st0" d="M470.9,477c-1.3-8.2-9-13.8-17.2-12.5l-40.6,6.4l-16.9-106.5c31.5-11.4,52.7-41.8,52.2-75.6   c0-7.4-0.1-6.2-18.5-122.3c-1.3-8.2-9-13.8-17.2-12.5l-126.9,20.1c-8.2,1.3-13.8,9-12.5,17.2l17.6,111c6.2,39,39.2,65.7,75.6,66.8   l16.9,106.5l-40.6,6.4c-8.2,1.3-13.8,9-12.5,17.2c1.3,8.1,8.9,13.8,17.2,12.5c58-9.2-74,11.7,111-17.6   C466.6,492.9,472.2,485.2,470.9,477L470.9,477z M402.5,186.1l13,82.3L311.4,240l-6.1-38.5L402.5,186.1z M320.6,297.6l-4-25   L417.2,300c-4.1,19.4-19.7,35.2-40.4,38.4C350,342.7,324.8,324.4,320.6,297.6z">
                                                                        </path>
                                                                        <path class="st0" d="M323.4,13.8C305.9-3.7,276.3-5.7,256,14.5c-20.3-20.2-49.9-18.2-67.4-0.7c-18.4,18.4-18.4,48.3,0,66.7   l56.8,56.8c5.9,5.9,15.4,5.9,21.3,0l56.8-56.8C341.8,62.1,341.8,32.2,323.4,13.8L323.4,13.8z M302.1,59.2L256,105.3l-46.1-46.1   c-6.7-6.7-6.7-17.5,0-24.1c6.7-6.7,17.5-6.7,24.1,0l18.4,18.6c2,2,5.1,2,7.1,0L278,35.1c6.7-6.7,17.5-6.6,24.1,0   C308.8,41.8,308.8,52.5,302.1,59.2L302.1,59.2z">
                                                                        </path>
                                                                    </g>
                                                                </svg>