<svg xmlns="http://www.w3.org/2000/svg" xmlns:xlink="http://www.w3.org/1999/xlink" id="Capa_1" x="0px" y="0px"
    viewBox="0 0 512 512" style="enable-background:new 0 0 512 512;" xml:space="preserve">
    <style type="text/css">
        .st0 {
            fill: #FFFFFF;
        }
    </style>
    <g>
        <g>
            <path class="st0"
                d="M471.5,134c-3.6,0-7.1,0.5-10.5,1.4v-13.9c0-22.3-18.1-40.4-40.3-40.5c-1.7-1.8-3.4-3.6-5.2-5.3    c-46-46-107.1-71.3-172.1-71.3S117.3,29.7,71.3,75.6C25.3,121.6,0,182.7,0,247.8s25.3,126.1,71.3,172.1    c46,46,107.1,71.3,172.1,71.3c18.4,0,36.4-2,53.9-6v7.4c0,8.3,6.7,15,15,15h154.9c8.2,0,14.9-6.6,15-14.9l0.2-20.6    c19.3-37.4,29.6-79.2,29.6-121.3l0.1-176.4C512,152.2,493.8,134,471.5,134z M243.4,461.2C125.7,461.2,30,365.4,30,247.8    S125.7,34.4,243.4,34.4c43.1,0,83.3,12.9,116.9,35c-17.9,4.2-31.3,20.3-31.3,39.4v2.9c-3.3-0.9-6.9-1.4-10.5-1.4    c-22.3,0-40.5,18.2-40.5,40.5v19.1c-10.6-4.7-22.3-7.4-34.7-7.4c-47.1,0-85.3,38.3-85.3,85.3c0,38.8,26.1,71.7,61.6,82l12.1,37.5    c10.8,33.4,27.8,63.8,50.6,90.4C269.8,459.9,256.7,461.2,243.4,461.2z M202.3,275.9l4.2,13.1c-11.3-10.1-18.5-24.9-18.5-41.2    c0-30.5,24.8-55.3,55.3-55.3c13.1,0,25.2,4.6,34.7,12.2v30.1c-11.7-14.4-31.9-19.7-49.6-11.8c-0.2,0.1-0.5,0.2-0.7,0.3l-4.5,2.3    C204.7,235,195.9,256.2,202.3,275.9z M481.9,350.9c0,38.4-9.6,76.6-27.8,110.5c-1.1,2.1-1.8,4.5-1.8,7l-0.1,9.4h-125v-9.3    c0-3.7-1.4-7.3-3.9-10.1l-14-15.5c-22.3-24.7-38.8-53.2-49.1-84.9l-29.5-91.3c-1.8-5.6,0.7-11.7,6-14.3l4.1-2.1    c5.8-2.4,12.5,0.1,15.3,5.7l23.4,47.2c3.1,6.2,10.1,9.5,16.9,8c6.8-1.6,11.6-7.6,11.6-14.6V293V150.7c0-5.8,4.7-10.5,10.5-10.5    s10.5,4.7,10.5,10.5v109.3c0,8.3,6.7,15,15,15s15-6.7,15-15V108.7c0-5.8,4.7-10.5,10.5-10.5s10.5,4.7,10.5,10.5v12.7v137.4    c0,8.3,6.7,15,15,15s15-6.7,15-15V121.5c0-5.8,4.7-10.5,10.5-10.5s10.5,4.7,10.5,10.5v137.4c0,8.3,6.7,15,15,15s15-6.7,15-15    v-84.3c0-5.8,4.7-10.5,10.5-10.5s10.5,4.7,10.5,10.5L481.9,350.9z">
            </path>
        </g>
    </g>
</svg>