<svg xmlns="http://www.w3.org/2000/svg" xmlns:xlink="http://www.w3.org/1999/xlink" id="Capa_1" x="0px" y="0px" viewBox="0 0 512 512" style="enable-background:new 0 0 512 512;" xml:space="preserve">
                                                                    <style type="text/css">
                                                                        .st0 {
                                                                            fill: #FFFFFF;
                                                                        }
                                                                    </style>
                                                                    <path id="XMLID_518_" class="st0" d="M497.2,478h-26V362.9c8-6.6,12.5-15.9,12.5-25.8v-38.7c0-21.1-18.8-38.2-41.9-38.2h-19.6V166  c0-15.7-12.8-28.5-28.5-28.5H392v-10.3c17.7-6.2,30.5-23.1,30.5-43c0-6.7-1.9-17.9-17-46C397.6,23.7,390,11.5,389.6,11  c-2.7-4.4-7.5-7-12.7-7s-9.9,2.6-12.7,7c-0.3,0.5-8,12.7-15.8,27.2c-15.1,28.1-17,39.4-17,46c0,19.8,12.8,36.8,30.5,43v10.3h-1.8  c-15.7,0-28.5,12.8-28.5,28.5v94.1h-30.3V166c0-15.7-12.8-28.5-28.5-28.5H271v-10.3c17.7-6.2,30.5-23.1,30.5-43  c0-6.7-1.9-17.9-17-46C276.7,23.7,269,11.5,268.7,11c-2.8-4.4-7.5-7-12.7-7s-9.9,2.6-12.7,7c-0.3,0.5-8,12.7-15.8,27.2  c-15.1,28.1-17,39.4-17,46c0,19.8,12.8,36.8,30.5,43v10.3h-1.8c-15.7,0-28.5,12.8-28.5,28.5v94.1h-30.3V166  c0-15.7-12.8-28.5-28.5-28.5h-1.8v-10.3c17.7-6.2,30.5-23.1,30.5-43c0-6.7-1.9-17.9-17-46c-7.8-14.5-15.5-26.7-15.8-27.2  c-2.7-4.4-7.5-7-12.7-7s-9.9,2.6-12.7,7c-0.3,0.5-8,12.7-15.8,27.2c-15.1,28.1-17,39.4-17,46c0,19.8,12.8,36.8,30.5,43v10.3h-1.8  c-15.7,0-28.5,12.8-28.5,28.5v94.1H70.1c-23.1,0-41.9,17.2-41.9,38.2v38.7c0,9.9,4.5,19.3,12.5,25.8V478h-26c-8.3,0-15,6.7-15,15  c0,8.3,6.7,15,15,15h482.4c8.3,0,15-6.7,15-15C512.2,484.7,505.5,478,497.2,478L497.2,478z M361.5,84.2c0.1-4.8,6.5-19.3,15.5-35.6  c8.9,16.3,15.4,30.8,15.5,35.6c0,8.5-7,15.5-15.5,15.5C368.4,99.7,361.5,92.8,361.5,84.2z M361.7,167.5h30.6V260h-30.6V167.5z   M240.5,84.2c0.1-4.8,6.5-19.3,15.5-35.6c8.9,16.3,15.4,30.8,15.5,35.6c0,8.5-6.9,15.5-15.5,15.5C247.5,99.7,240.5,92.8,240.5,84.2  L240.5,84.2z M240.7,167.5h30.6V260h-30.6L240.7,167.5z M119.6,84.2c0.1-4.8,6.5-19.3,15.5-35.6c8.9,16.3,15.4,30.8,15.5,35.6  c0,8.5-7,15.5-15.5,15.5C126.5,99.7,119.6,92.8,119.6,84.2z M119.8,167.5h30.6V260h-30.6V167.5z M441.2,478H70.8V371.6  c2.3-0.3,4.7-0.7,7-1.4l37.9-11.2c21.9-6.5,46-6.5,67.9,0l29.9,8.9c13.7,4.1,28.1,6.1,42.5,6.1c14.4,0,28.8-2,42.5-6.1l29.9-8.9  c21.9-6.5,46-6.5,67.9,0l37.9,11.2c2.3,0.7,4.6,1.2,7,1.4L441.2,478L441.2,478z M453.7,337.1c0,1.3-1,2.3-1.9,2.9  c-1.9,1.4-5.3,2.5-9.1,1.4l-37.9-11.2c-27.4-8.1-57.6-8.1-85,0L290,339c-21.9,6.5-46,6.5-67.9,0l-29.9-8.9  c-13.7-4.1-28.1-6.1-42.5-6.1c-14.4,0-28.8,2-42.5,6.1l-37.9,11.2c-3.8,1.1-7.2,0-9.1-1.4c-0.8-0.6-1.9-1.6-1.9-2.9v-38.7  c0-3.9,4.9-8.2,11.9-8.2h371.7c7,0,11.9,4.3,11.9,8.2L453.7,337.1L453.7,337.1z">
                                                                    </path>
                                                                </svg>