<svg xmlns="http://www.w3.org/2000/svg" xmlns:xlink="http://www.w3.org/1999/xlink" id="Layer_1" x="0px" y="0px"
    viewBox="0 0 512 512" style="enable-background:new 0 0 512 512;" xml:space="preserve">
    <style type="text/css">
        .st0 {
            fill: #FFFFFF;
        }
    </style>
    <g>
        <path class="st0"
            d="M508.7,199.4c-9.3-23.2-35.7-34.5-58.9-25.3c-104.3,46.2-92.9,41.2-93.8,41.5c-17.2-21.5-38-42.3-59.8-59.8   c0.4-0.8-4.5,10,41.5-93.8c9.3-23.2-2.1-49.6-25.3-58.9c-23.3-9.3-49.6,2-58.9,25.3l-5.6,14l28.1,11.2l5.6-14   c1.5-3.7,4.4-6.7,8.1-8.3c7.7-3.3,16.5,0.2,19.8,7.9c1.6,3.6,1.6,7.7,0.2,11.3l-38.6,87c-12.3-8.1-24.5-14.7-36.3-19.8   c-34.3-14.7-62-13.9-78.1,2.1c-5.5,5.5-9.2,12.4-11.1,20.5L0,454.3L57.7,512l311.2-145.3c9.2-1.7,17-5.6,23.1-11.7   c16.1-16.1,16.8-43.8,2.1-78.1c-5-11.8-11.7-24-19.8-36.3l87-38.6c3.7-1.4,7.7-1.3,11.3,0.2c7.7,3.3,11.2,12.2,7.9,19.8   c-1.6,3.7-4.5,6.6-8.3,8.1l-14,5.6l11.2,28.1l14-5.6C506.7,249,518,222.6,508.7,199.4L508.7,199.4z M117.6,272.9l36.1-77.6   C179.5,258.6,252.5,331.8,316,358l-77.2,36L117.6,272.9z M209.7,407.7l-58.2,27.2L77,360.4l27.1-58.3L209.7,407.7z M36.3,447.9   l27.1-58.3l58.9,58.9l-58.2,27.2L36.3,447.9z M366.3,288.8c9,20.9,10.6,38.5,4.3,44.9c-6.4,6.4-24,4.7-44.9-4.3   c-54.8-23.5-119.5-88.1-143.1-143.1c-9-20.9-10.6-38.5-4.3-44.9c2.6-2.6,7-3.8,12.7-3.8c8.4,0,19.7,2.8,32.2,8.1   c11.5,4.9,23.6,11.7,35.7,20l-19.7,44.3l27.6,12.2l16.7-37.8c15.6,13.1,30.7,28.2,43.8,43.8l-37.8,16.7l12.2,27.6l44.3-19.7   C354.6,265.2,361.4,277.3,366.3,288.8L366.3,288.8z">
        </path>
        <path class="st0" d="M338.7,151.9L404,89l21,21.7l-65.3,62.9L338.7,151.9z">
        </path>
    </g>
</svg>